<?xml version="1.0" encoding="UTF-8" standalone="no"?>
<svg
   xmlns:dc="http://purl.org/dc/elements/1.1/"
   xmlns:cc="http://creativecommons.org/ns#"
   xmlns:rdf="http://www.w3.org/1999/02/22-rdf-syntax-ns#"
   xmlns:svg="http://www.w3.org/2000/svg"
   xmlns="http://www.w3.org/2000/svg"
   xmlns:sodipodi="http://sodipodi.sourceforge.net/DTD/sodipodi-0.dtd"
   xmlns:inkscape="http://www.inkscape.org/namespaces/inkscape"
   sodipodi:docname="Loading.svg"
   inkscape:version="1.0 (4035a4fb49, 2020-05-01)"
   id="svg8"
   version="1.1"
   viewBox="0 0 67.468748 67.468752"
   height="255"
   width="255">
  <defs
     id="defs2" />
  <sodipodi:namedview
     inkscape:window-maximized="1"
     inkscape:window-y="-8"
     inkscape:window-x="-8"
     inkscape:window-height="715"
     inkscape:window-width="1366"
     showguides="false"
     inkscape:snap-midpoints="true"
     inkscape:pagecheckerboard="true"
     units="px"
     showgrid="false"
     inkscape:document-rotation="0"
     inkscape:current-layer="layer1"
     inkscape:document-units="px"
     inkscape:cy="130.71666"
     inkscape:cx="135.64366"
     inkscape:zoom="1.4"
     inkscape:pageshadow="2"
     inkscape:pageopacity="0.0"
     borderopacity="1.0"
     bordercolor="#666666"
     pagecolor="#ffffff"
     id="base" />
  <metadata
     id="metadata5">
    <rdf:RDF>
      <cc:Work
         rdf:about="">
        <dc:format>image/svg+xml</dc:format>
        <dc:type
           rdf:resource="http://purl.org/dc/dcmitype/StillImage" />
        <dc:title></dc:title>
      </cc:Work>
    </rdf:RDF>
  </metadata>
  <g
     id="layer1"
     inkscape:groupmode="layer"
     inkscape:label="Layer 1">
    <path
       transform="scale(0.26458333)"
       d="M 102.9668 2.3828125 A 127.5 127.5 0 0 0 2.3828125 102.9668 L 9.7421875 104.41016 A 120 120 0 0 1 104.41016 9.7421875 L 102.9668 2.3828125 z M 152.0332 2.3828125 L 150.58984 9.7421875 A 120 120 0 0 1 245.25781 104.41016 L 252.61719 102.9668 A 127.5 127.5 0 0 0 152.0332 2.3828125 z M 9.7421875 150.58984 L 2.3828125 152.0332 A 127.5 127.5 0 0 0 102.9668 252.61719 L 104.41016 245.25781 A 120 120 0 0 1 9.7421875 150.58984 z M 245.25781 150.58984 A 120 120 0 0 1 150.58984 245.25781 L 152.0332 252.61719 A 127.5 127.5 0 0 0 252.61719 152.0332 L 245.25781 150.58984 z "
       style="fill:#ffffff;fill-opacity:0.996078;stroke:none;stroke-width:5.00001;stroke-linecap:round;stroke-linejoin:round;stroke-miterlimit:4;stroke-dasharray:5.00001, 60;stroke-dashoffset:0"
       id="path850" />
  </g>
</svg>
