<?xml version="1.0" encoding="UTF-8" standalone="no"?>
<svg
   xmlns:dc="http://purl.org/dc/elements/1.1/"
   xmlns:cc="http://creativecommons.org/ns#"
   xmlns:rdf="http://www.w3.org/1999/02/22-rdf-syntax-ns#"
   xmlns:svg="http://www.w3.org/2000/svg"
   xmlns="http://www.w3.org/2000/svg"
   xmlns:sodipodi="http://sodipodi.sourceforge.net/DTD/sodipodi-0.dtd"
   xmlns:inkscape="http://www.inkscape.org/namespaces/inkscape"
   inkscape:export-ydpi="96"
   inkscape:export-xdpi="96"
   inkscape:export-filename="D:\Personal Projects\Electron\Biblio\src\assets\logo.png"
   width="512"
   height="512"
   viewBox="0 0 135.46667 135.46667"
   version="1.1"
   id="svg8"
   inkscape:version="1.0 (4035a4fb49, 2020-05-01)"
   sodipodi:docname="logo.svg">
  <defs
     id="defs2" />
  <sodipodi:namedview
     id="base"
     pagecolor="#ffffff"
     bordercolor="#666666"
     borderopacity="1.0"
     inkscape:pageopacity="0.0"
     inkscape:pageshadow="2"
     inkscape:zoom="0.37512071"
     inkscape:cx="-118.58164"
     inkscape:cy="207.78894"
     inkscape:document-units="px"
     inkscape:current-layer="layer1"
     inkscape:document-rotation="0"
     showgrid="false"
     units="px"
     width="512px"
     inkscape:snap-smooth-nodes="true"
     inkscape:snap-intersection-paths="true"
     showguides="true"
     inkscape:guide-bbox="true"
     inkscape:snap-global="false"
     inkscape:window-width="1366"
     inkscape:window-height="715"
     inkscape:window-x="-8"
     inkscape:window-y="-8"
     inkscape:window-maximized="1" />
  <metadata
     id="metadata5">
    <rdf:RDF>
      <cc:Work
         rdf:about="">
        <dc:format>image/svg+xml</dc:format>
        <dc:type
           rdf:resource="http://purl.org/dc/dcmitype/StillImage" />
        <dc:title />
      </cc:Work>
    </rdf:RDF>
  </metadata>
  <g
     inkscape:label="Layer 1"
     inkscape:groupmode="layer"
     id="layer1">
    <circle
       style="fill:#0055d4;fill-opacity:0.996078;stroke:none;stroke-width:1.323;stroke-linecap:round;stroke-linejoin:round;stroke-miterlimit:4;stroke-dasharray:none;stroke-dashoffset:0"
       id="path833"
       cx="-44.426697"
       cy="114.85647"
       r="67.733337"
       transform="rotate(30)" />
    <circle
       style="fill:#0054d4;fill-opacity:0.996078;stroke:none;stroke-width:1.323;stroke-linecap:round;stroke-linejoin:round;stroke-miterlimit:4;stroke-dasharray:none;stroke-dashoffset:0"
       id="path888"
       cx="4.0234374e-07"
       cy="95.789406"
       r="67.733337"
       transform="rotate(-45)" />
    <rect
       style="opacity:1;fill:#d7eef4;fill-opacity:1;stroke:none;stroke-width:1.323;stroke-linecap:round;stroke-linejoin:round;stroke-miterlimit:4;stroke-dasharray:none;stroke-dashoffset:0"
       id="rect980"
       width="12.343879"
       height="18.079418"
       x="55.111053"
       y="28.428329"
       ry="3.3620229" />
    <ellipse
       transform="matrix(0.96375496,0.26678901,-0.7693045,0.63888229,0,0)"
       cy="79.704132"
       cx="134.61243"
       id="circle990"
       style="fill:#63edff;fill-opacity:1;stroke:none;stroke-width:1.46016;stroke-linecap:round;stroke-linejoin:round;stroke-miterlimit:4;stroke-dasharray:none;stroke-dashoffset:0"
       rx="29.808409"
       ry="21.559889" />
    <rect
       ry="3.3620229"
       y="89.439247"
       x="55.111053"
       height="18.079418"
       width="12.343879"
       id="rect998"
       style="opacity:1;fill:#d7eef4;fill-opacity:1;stroke:none;stroke-width:1.323;stroke-linecap:round;stroke-linejoin:round;stroke-miterlimit:4;stroke-dasharray:none;stroke-dashoffset:0" />
    <rect
       ry="3.3620229"
       y="28.428329"
       x="69.325218"
       height="18.079418"
       width="12.343879"
       id="rect984"
       style="opacity:1;fill:#d7eef4;fill-opacity:1;stroke:none;stroke-width:1.323;stroke-linecap:round;stroke-linejoin:round;stroke-miterlimit:4;stroke-dasharray:none;stroke-dashoffset:0" />
    <rect
       style="opacity:1;fill:#d7eef4;fill-opacity:1;stroke:none;stroke-width:1.323;stroke-linecap:round;stroke-linejoin:round;stroke-miterlimit:4;stroke-dasharray:none;stroke-dashoffset:0"
       id="rect1000"
       width="12.343879"
       height="18.079418"
       x="69.325218"
       y="89.439247"
       ry="3.3620229" />
    <path
       id="circle890"
       style="fill:#aaeeff;fill-opacity:0.996078;stroke:none;stroke-width:5.00031;stroke-linecap:round;stroke-linejoin:round;stroke-miterlimit:4;stroke-dasharray:none;stroke-dashoffset:0"
       d="M 131.73828 67.548828 A 64.000001 64.000001 0 0 0 86.294922 86.294922 A 64.000001 64.000001 0 0 0 86.294922 176.80469 A 64.000001 64.000001 0 0 0 92.832031 182.50781 A 178.95435 178.95435 0 0 0 92.832031 329.49023 A 64.000001 64.000001 0 0 0 86.294922 335.19531 A 64.000001 64.000001 0 0 0 86.294922 425.70508 A 64.000001 64.000001 0 0 0 176.80469 425.70508 A 64.000001 64.000001 0 0 0 182.50781 419.16797 A 178.95435 178.95435 0 0 0 329.49023 419.16797 A 64.000001 64.000001 0 0 0 335.19531 425.70508 A 64.000001 64.000001 0 0 0 425.70508 425.70508 A 64.000001 64.000001 0 0 0 425.70508 335.19531 A 64.000001 64.000001 0 0 0 419.16797 329.49219 A 178.95435 178.95435 0 0 0 419.16797 182.50977 A 64.000001 64.000001 0 0 0 425.70508 176.80469 A 64.000001 64.000001 0 0 0 425.70508 86.294922 A 64.000001 64.000001 0 0 0 335.19531 86.294922 A 64.000001 64.000001 0 0 0 329.49219 92.832031 A 178.95435 178.95435 0 0 0 182.50977 92.832031 A 64.000001 64.000001 0 0 0 176.80469 86.294922 A 64.000001 64.000001 0 0 0 131.73828 67.548828 z M 131.62695 99.548828 A 32.000001 32.000001 0 0 1 154.17578 108.92188 A 32.000001 32.000001 0 0 1 154.17578 154.17578 A 32.000001 32.000001 0 0 1 108.92188 154.17578 A 32.000001 32.000001 0 0 1 108.92188 108.92188 A 32.000001 32.000001 0 0 1 131.62695 99.548828 z M 380.5293 99.548828 A 32.000001 32.000001 0 0 1 403.07812 108.92188 A 32.000001 32.000001 0 0 1 403.07812 154.17578 A 32.000001 32.000001 0 0 1 357.82422 154.17578 A 32.000001 32.000001 0 0 1 357.82422 108.92188 A 32.000001 32.000001 0 0 1 380.5293 99.548828 z M 255.71094 136 A 120 120 0 0 1 340.85352 171.14648 A 120 120 0 0 1 340.85352 340.85352 A 120 120 0 0 1 171.14648 340.85352 A 120 120 0 0 1 171.14648 171.14648 A 120 120 0 0 1 255.71094 136 z "
       transform="scale(0.26458334)" />
    <g
       id="g978">
      <circle
         style="fill:#0054d4;fill-opacity:0.996078;stroke:none;stroke-width:1.323;stroke-linecap:round;stroke-linejoin:round;stroke-miterlimit:4;stroke-dasharray:none;stroke-dashoffset:0"
         id="circle917"
         cx="243.36014"
         cy="-75.448349"
         r="67.733337" />
      <circle
         cy="-122.01502"
         cx="243.36014"
         id="circle919"
         style="fill:#aaeeff;fill-opacity:0.996078;stroke:none;stroke-width:1.323;stroke-linecap:round;stroke-linejoin:round;stroke-miterlimit:4;stroke-dasharray:none;stroke-dashoffset:0"
         r="16.933334" />
      <circle
         r="16.933334"
         style="fill:#aaeeff;fill-opacity:0.996078;stroke:none;stroke-width:1.323;stroke-linecap:round;stroke-linejoin:round;stroke-miterlimit:4;stroke-dasharray:none;stroke-dashoffset:0"
         id="circle921"
         cx="289.92682"
         cy="-75.448349" />
      <circle
         cy="-75.448349"
         cx="196.79347"
         id="circle923"
         style="fill:#aaeeff;fill-opacity:0.996078;stroke:none;stroke-width:1.323;stroke-linecap:round;stroke-linejoin:round;stroke-miterlimit:4;stroke-dasharray:none;stroke-dashoffset:0"
         r="16.933334" />
      <circle
         r="16.933334"
         style="fill:#aaeeff;fill-opacity:0.996078;stroke:none;stroke-width:1.323;stroke-linecap:round;stroke-linejoin:round;stroke-miterlimit:4;stroke-dasharray:none;stroke-dashoffset:0"
         id="circle925"
         cx="243.36014"
         cy="-28.88168" />
      <circle
         r="47.348339"
         cy="-75.448349"
         cx="243.36014"
         id="circle927"
         style="fill:#aaeeff;fill-opacity:0.996078;stroke:none;stroke-width:1.323;stroke-linecap:round;stroke-linejoin:round;stroke-miterlimit:4;stroke-dasharray:none;stroke-dashoffset:0" />
      <circle
         style="fill:#0055d4;fill-opacity:0.996078;stroke:none;stroke-width:1.323;stroke-linecap:round;stroke-linejoin:round;stroke-miterlimit:4;stroke-dasharray:none;stroke-dashoffset:0"
         id="circle929"
         cx="243.36014"
         cy="-75.448349"
         r="31.75" />
      <circle
         cy="-122.01502"
         cx="243.36014"
         id="circle931"
         style="fill:#0055d4;fill-opacity:0.996078;stroke:none;stroke-width:1.323;stroke-linecap:round;stroke-linejoin:round;stroke-miterlimit:4;stroke-dasharray:none;stroke-dashoffset:0"
         r="8.4666672" />
      <circle
         r="8.4666672"
         style="fill:#0055d4;fill-opacity:0.996078;stroke:none;stroke-width:1.323;stroke-linecap:round;stroke-linejoin:round;stroke-miterlimit:4;stroke-dasharray:none;stroke-dashoffset:0"
         id="circle933"
         cx="289.92682"
         cy="-75.448349" />
    </g>
  </g>
</svg>
